<?xml version="1.0" encoding="UTF-8"?><svg id="b" xmlns="http://www.w3.org/2000/svg" viewBox="0 0 116.96 116.96"><g id="c"><path d="M58.5,116.96c-1.77-12.55-6.07-28.71-19.12-41.15-12.32-11.74-27.35-15.66-39.38-17.35,8.37-.97,16.08-2.77,23.2-5.61,4-1.64,8.12-3.39,12.98-3.68,2.9-.17,6.6.8,9.95,3.59,3.28,2.73,5.62,6.52,5.24,9.46,1.87-.33,3.84-.08,5.94.78,2.1.85,4.15,2.3,6.12,4.43,2.29,2.47,3.85,4.93,4.49,7.57.78,3.21.43,6.07-.19,8.59-.83,3.37-2.06,6.46-3.34,9.52-3,7.3-4.88,15.22-5.89,23.86ZM30.52,63.55c5.01,2.61,9.72,2.87,12.54.72.02-.02.04-.03.06-.05,1.08-.82,1.4-1.89,1.01-3.14-.39-1.24-1.4-2.49-3.15-3.7-1.75-1.21-3.53-1.87-5.42-2.05-1.89-.18-4.22.72-6.19,1.3-3.09,1.16-4.99,1.91-7.53,2.79,2.79,1.29,5.76,2.59,8.69,4.12ZM58.12,94.73c.95-3.08,1.99-6.6,3.05-10.19.46-1.72,1-3.25.72-5.13-.28-1.88-1.12-3.78-2.62-5.74-1.34-1.76-2.68-2.74-3.97-3.07-1.3-.33-2.41.02-3.27,1.12-.01.02-.03.04-.04.06-2.39,3.02-1.8,8.48,1.57,14.37,1.66,2.9,3.17,5.82,4.56,8.59Z" stroke-width="0"/><path d="M93.71,64.16c-4.79,1.78-7.9,3.24-12.2,4.38-3.59.96-8.09.73-13-1.25-3.81-1.54-7.77-4.61-11.04-7.85-2.29-2.26-4.82-5.56-6.31-8.19-1.8-3.18-2.24-5.6-2.56-8.37-.45-3.88.32-6.84,1.03-10.2.07-.33.13-.69.22-1.03.95-3.77,2.87-8.09,4.06-11.23,2.79-7.41,4.55-20.43,4.55-20.43,0,0,1.4,9.69,3.38,15.26,2.37,7.35,4.71,11.96,8.51,17.46-5.83-6.51-10.2-2.41-10.93-1.51-.77.95-1.05,1.2-1.77,2.71-.81,1.72-1.07,4.21-1.09,6.44-.01,2.37.39,4.77,1.38,7.17.99,2.4,2.53,4.67,4.74,6.87,2.17,2.17,4.41,3.69,6.8,4.66,2.39.97,4.79,1.83,7.25,1.76,2.44-.06,4.28-.37,6.79-1.62,1.82-.91,3.95-1.92,4.3-4.17.52-3.32.18-4.84-3.93-8.7,8.06,5.56,13.51,7.33,19.63,9.32,3.13,1.13,13.46,2.86,13.46,2.86,0,0-4.17.55-8.13,1.26-2.72.49-5.52,1.26-6.4,1.48-2.21.56-6.67,2.15-8.72,2.91Z" stroke-width="0"/></g></svg>